Muli-ExtraLight.ufo
<glyph name="exclam" format="1">
  <advance width="442"/>
  <unicode hex="0021"/>
  <outline>
    <contour>
      <point x="196" y="363" type="line"/>
      <point x="164" y="1456" type="line"/>
      <point x="284" y="1456" type="line"/>
      <point x="252" y="363" type="line"/>
    </contour>
    <contour>
      <point x="143" y="0" type="line"/>
      <point x="143" y="160" type="line"/>
      <point x="300" y="160" type="line"/>
      <point x="300" y="0" type="line"/>
    </contour>
  </outline>
</glyph>
<glyph name="quotedbl" format="1">
  <advance width="911"/>
  <unicode hex="0022"/>
  <outline>
    <contour>
      <point x="284" y="929" type="line"/>
      <point x="254" y="1456" type="line"/>
      <point x="364" y="1456" type="line"/>
      <point x="348" y="929" type="line"/>
    </contour>
    <contour>
      <point x="585" y="929" type="line"/>
      <point x="555" y="1456" type="line"/>
      <point x="665" y="1456" type="line"/>
      <point x="649" y="929" type="line"/>
    </contour>
  </outline>
</glyph>
<glyph name="dollar" format="1">
  <advance width="1143"/>
  <unicode hex="0024"/>
  <outline>
    <contour>
      <point x="558" y="-193" type="line"/>
      <point x="633" y="-193" type="line"/>
      <point x="633" y="-19.4894" type="line"/>
      <point x="884.609" y="-3.00134"/>
      <point x="1033.4" y="147.062"/>
      <point x="1040" y="362" type="curve" smooth="yes"/>
      <point x="1047" y="585"/>
      <point x="981" y="698"/>
      <point x="645" y="784" type="curve" smooth="yes"/>
      <point x="633" y="787.081" type="line"/>
      <point x="633" y="1393.06" type="line"/>
      <point x="808.75" y="1380.13"/>
      <point x="896.757" y="1306.15"/>
      <point x="925" y="1277" type="curve"/>
      <point x="972" y="1351" type="line"/>
      <point x="948.749" y="1368.67"/>
      <point x="861.491" y="1465.92"/>
      <point x="633" y="1479.44" type="curve"/>
      <point x="633" y="1622" type="line"/>
      <point x="558" y="1622" type="line"/>
      <point x="558" y="1480.74" type="line"/>
      <point x="287.708" y="1474"/>
      <point x="128" y="1336.28"/>
      <point x="128" y="1113" type="curve" smooth="yes"/>
      <point x="128" y="884"/>
      <point x="249" y="791"/>
      <point x="473" y="732" type="curve" smooth="yes"/>
      <point x="558" y="709.752" type="line"/>
      <point x="558" y="65.5491" type="line"/>
      <point x="345.627" y="73.9584"/>
      <point x="238.061" y="176.691"/>
      <point x="193" y="216" type="curve"/>
      <point x="142" y="142" type="line"/>
      <point x="176.782" y="114.948"/>
      <point x="296.509" y="-11.9859"/>
      <point x="558" y="-20.5456" type="curve"/>
    </contour>
    <contour>
      <point x="633" y="67.0345" type="curve"/>
      <point x="633" y="690.079" type="line"/>
      <point x="882.846" y="622.943"/>
      <point x="945.9" y="551.238"/>
      <point x="939" y="361" type="curve" smooth="yes"/>
      <point x="933.452" y="199.193"/>
      <point x="819.332" y="83.5515"/>
    </contour>
    <contour>
      <point x="558" y="1394.67" type="curve"/>
      <point x="558" y="806.338" type="line"/>
      <point x="497" y="822" type="line" smooth="yes"/>
      <point x="292" y="875"/>
      <point x="236" y="940"/>
      <point x="236" y="1113" type="curve" smooth="yes"/>
      <point x="236" y="1285.18"/>
      <point x="353.892" y="1388.12"/>
    </contour>
  </outline>
</glyph>
<glyph name="asterisk" format="1">
  <advance width="1190"/>
  <unicode hex="002A"/>
  <outline>
    <contour>
      <point x="776" y="799" type="line"/>
      <point x="622" y="1083" type="line"/>
      <point x="478" y="814" type="line"/>
      <point x="399" y="852" type="line"/>
      <point x="563" y="1099" type="line"/>
      <point x="303" y="1165" type="line"/>
      <point x="317" y="1260" type="line"/>
      <point x="585" y="1146" type="line"/>
      <point x="555" y="1460" type="line"/>
      <point x="639" y="1460" type="line"/>
      <point x="647" y="1146" type="line"/>
      <point x="867" y="1260" type="line"/>
      <point x="917" y="1165" type="line"/>
      <point x="676" y="1099" type="line"/>
      <point x="859" y="834" type="line"/>
    </contour>
  </outline>
</glyph>
<glyph name="period" format="1">
  <advance width="550"/>
  <unicode hex="002E"/>
  <outline>
    <contour>
      <point x="204" y="0" type="line"/>
      <point x="204" y="167" type="line"/>
      <point x="366" y="167" type="line"/>
      <point x="366" y="0" type="line"/>
    </contour>
  </outline>
</glyph>
<glyph name="two" format="1">
  <advance width="1212"/>
  <unicode hex="0032"/>
  <outline>
    <contour>
      <point x="218" y="0" type="line"/>
      <point x="218" y="90" type="line"/>
      <point x="709" y="649" type="line" smooth="yes"/>
      <point x="867" y="829"/>
      <point x="931" y="920"/>
      <point x="931" y="1068" type="curve" smooth="yes"/>
      <point x="931" y="1244"/>
      <point x="849" y="1394"/>
      <point x="586" y="1394" type="curve" smooth="yes"/>
      <point x="467" y="1394"/>
      <point x="335" y="1358"/>
      <point x="223" y="1294" type="curve"/>
      <point x="185" y="1373" type="line"/>
      <point x="307" y="1445"/>
      <point x="451" y="1483"/>
      <point x="585" y="1483" type="curve" smooth="yes"/>
      <point x="923" y="1483"/>
      <point x="1032" y="1276"/>
      <point x="1032" y="1084" type="curve" smooth="yes"/>
      <point x="1032" y="896"/>
      <point x="932" y="771"/>
      <point x="772" y="590" type="curve" smooth="yes"/>
      <point x="328" y="86" type="line"/>
      <point x="1027" y="86" type="line"/>
      <point x="1027" y="0" type="line"/>
    </contour>
  </outline>
</glyph>
<glyph name="three" format="1">
  <advance width="1177"/>
  <unicode hex="0033"/>
  <outline>
    <contour>
      <point x="538" y="-23" type="curve" smooth="yes"/>
      <point x="411" y="-23"/>
      <point x="277" y="8"/>
      <point x="195" y="56" type="curve"/>
      <point x="216" y="137" type="line"/>
      <point x="328" y="80"/>
      <point x="454" y="63"/>
      <point x="538" y="63" type="curve" smooth="yes"/>
      <point x="771" y="63"/>
      <point x="922" y="192"/>
      <point x="922" y="392" type="curve" smooth="yes"/>
      <point x="922" y="590"/>
      <point x="804" y="719"/>
      <point x="559" y="724" type="curve" smooth="yes"/>
      <point x="452" y="726" type="line"/>
      <point x="450" y="820" type="line"/>
      <point x="559" y="820" type="line" smooth="yes"/>
      <point x="787" y="820"/>
      <point x="894" y="937"/>
      <point x="894" y="1118" type="curve" smooth="yes"/>
      <point x="894" y="1288"/>
      <point x="761" y="1397"/>
      <point x="554" y="1397" type="curve" smooth="yes"/>
      <point x="412" y="1397"/>
      <point x="255" y="1343"/>
      <point x="169" y="1224" type="curve"/>
      <point x="112" y="1283" type="line"/>
      <point x="190" y="1406"/>
      <point x="364" y="1483"/>
      <point x="554" y="1483" type="curve" smooth="yes"/>
      <point x="821" y="1483"/>
      <point x="992" y="1340"/>
      <point x="992" y="1118" type="curve" smooth="yes"/>
      <point x="992" y="971"/>
      <point x="893" y="808"/>
      <point x="710" y="772" type="curve"/>
      <point x="908" y="741"/>
      <point x="1032" y="578"/>
      <point x="1032" y="392" type="curve" smooth="yes"/>
      <point x="1032" y="139"/>
      <point x="839" y="-23"/>
    </contour>
  </outline>
</glyph>
<glyph name="semicolon" format="1">
  <advance width="550"/>
  <unicode hex="003B"/>
  <outline>
    <contour>
      <point x="142" y="833" type="line"/>
      <point x="142" y="1001" type="line"/>
      <point x="333" y="1001" type="line"/>
      <point x="333" y="833" type="line"/>
    </contour>
    <contour>
      <point x="126" y="-256" type="line"/>
      <point x="229" y="164" type="line"/>
      <point x="348" y="164" type="line"/>
      <point x="197" y="-256" type="line"/>
    </contour>
  </outline>
</glyph>
<glyph name="less" format="1">
  <advance width="1044"/>
  <unicode hex="003C"/>
  <outline>
    <contour>
      <point x="824" y="108" type="line"/>
      <point x="46" y="565" type="line"/>
      <point x="46" y="636" type="line"/>
      <point x="830" y="1018" type="line"/>
      <point x="830" y="916" type="line"/>
      <point x="150" y="591" type="line"/>
      <point x="824" y="209" type="line"/>
    </contour>
  </outline>
</glyph>
<glyph name="equal" format="1">
  <advance width="1040"/>
  <unicode hex="003D"/>
  <outline>
    <contour>
      <point x="110" y="705" type="line"/>
      <point x="110" y="798" type="line"/>
      <point x="930" y="798" type="line"/>
      <point x="930" y="705" type="line"/>
    </contour>
    <contour>
      <point x="112" y="333" type="line"/>
      <point x="112" y="425" type="line"/>
      <point x="930" y="425" type="line"/>
      <point x="930" y="333" type="line"/>
    </contour>
  </outline>
</glyph>
<glyph name="question" format="1">
  <advance width="1113"/>
  <unicode hex="003F"/>
  <outline>
    <contour>
      <point x="353" y="-20" type="line"/>
      <point x="353" y="147" type="line"/>
      <point x="516" y="147" type="line"/>
      <point x="516" y="-20" type="line"/>
    </contour>
    <contour>
      <point x="390" y="338" type="line"/>
      <point x="390" y="486" type="line" smooth="yes"/>
      <point x="390" y="716"/>
      <point x="799" y="860"/>
      <point x="799" y="1131" type="curve" smooth="yes"/>
      <point x="799" y="1310"/>
      <point x="658" y="1384"/>
      <point x="485" y="1384" type="curve" smooth="yes"/>
      <point x="358" y="1384"/>
      <point x="260" y="1332"/>
      <point x="213" y="1303" type="curve"/>
      <point x="213" y="1408" type="line"/>
      <point x="369" y="1483"/>
      <point x="501" y="1473"/>
      <point x="503" y="1473" type="curve" smooth="yes"/>
      <point x="758" y="1473"/>
      <point x="901" y="1362"/>
      <point x="901" y="1140" type="curve" smooth="yes"/>
      <point x="901" y="843"/>
      <point x="470" y="673"/>
      <point x="470" y="480" type="curve" smooth="yes"/>
      <point x="470" y="338" type="line"/>
    </contour>
  </outline>
</glyph>
<glyph name="at" format="1">
  <advance width="1707"/>
  <unicode hex="0040"/>
  <outline>
    <contour>
      <point x="771" y="345" type="curve" smooth="yes"/>
      <point x="958" y="345"/>
      <point x="1090" y="519"/>
      <point x="1109" y="789" type="curve" smooth="yes"/>
      <point x="1121" y="966"/>
      <point x="1047" y="1071"/>
      <point x="921" y="1080" type="curve" smooth="yes"/>
      <point x="702" y="1096"/>
      <point x="561" y="898"/>
      <point x="561" y="614" type="curve" smooth="yes"/>
      <point x="561" y="450"/>
      <point x="643" y="345"/>
    </contour>
    <contour>
      <point x="899" y="-66" type="curve" smooth="yes"/>
      <point x="419" y="-66"/>
      <point x="110" y="212"/>
      <point x="110" y="681" type="curve" smooth="yes"/>
      <point x="110" y="1152"/>
      <point x="414" y="1471"/>
      <point x="887" y="1471" type="curve" smooth="yes"/>
      <point x="1319" y="1471"/>
      <point x="1584" y="1213"/>
      <point x="1584" y="806" type="curve" smooth="yes"/>
      <point x="1584" y="469"/>
      <point x="1402" y="276"/>
      <point x="1198" y="276" type="curve" smooth="yes"/>
      <point x="1104" y="276"/>
      <point x="1032" y="341"/>
      <point x="1062" y="470" type="curve"/>
      <point x="1015" y="356"/>
      <point x="903" y="280"/>
      <point x="767" y="280" type="curve" smooth="yes"/>
      <point x="593" y="280"/>
      <point x="481" y="409"/>
      <point x="481" y="609" type="curve" smooth="yes"/>
      <point x="481" y="937"/>
      <point x="655" y="1164"/>
      <point x="926" y="1148" type="curve" smooth="yes"/>
      <point x="1058" y="1140"/>
      <point x="1145" y="1053"/>
      <point x="1152" y="923" type="curve"/>
      <point x="1198" y="1108" type="line"/>
      <point x="1271" y="1108" type="line"/>
      <point x="1135" y="556" type="line" smooth="yes"/>
      <point x="1118" y="487"/>
      <point x="1110" y="439"/>
      <point x="1110" y="408" type="curve" smooth="yes"/>
      <point x="1110" y="360"/>
      <point x="1147" y="330"/>
      <point x="1204" y="330" type="curve" smooth="yes"/>
      <point x="1388" y="330"/>
      <point x="1511" y="522"/>
      <point x="1511" y="806" type="curve" smooth="yes"/>
      <point x="1511" y="1164"/>
      <point x="1264" y="1405"/>
      <point x="887" y="1405" type="curve" smooth="yes"/>
      <point x="468" y="1405"/>
      <point x="199" y="1103"/>
      <point x="199" y="681" type="curve" smooth="yes"/>
      <point x="199" y="258"/>
      <point x="473" y="0"/>
      <point x="899" y="0" type="curve" smooth="yes"/>
      <point x="1132" y="0"/>
      <point x="1338" y="83"/>
      <point x="1425" y="202" type="curve"/>
      <point x="1482" y="166" type="line"/>
      <point x="1402" y="22"/>
      <point x="1174" y="-66"/>
    </contour>
  </outline>
</glyph>
<glyph name="C" format="1">
  <advance width="1389"/>
  <unicode hex="0043"/>
  <outline>
    <contour>
      <point x="807" y="1456" type="move" name="top"/>
    </contour>
    <contour>
      <point x="810" y="-22" type="curve" smooth="yes"/>
      <point x="384" y="-22"/>
      <point x="110" y="261"/>
      <point x="110" y="701" type="curve" smooth="yes"/>
      <point x="110" y="1176"/>
      <point x="389" y="1481"/>
      <point x="824" y="1481" type="curve" smooth="yes"/>
      <point x="991" y="1481"/>
      <point x="1136" y="1433"/>
      <point x="1243" y="1342" type="curve"/>
      <point x="1199" y="1274" type="line"/>
      <point x="1098" y="1353"/>
      <point x="968" y="1395"/>
      <point x="824" y="1395" type="curve" smooth="yes"/>
      <point x="456" y="1395"/>
      <point x="220" y="1123"/>
      <point x="220" y="701" type="curve" smooth="yes"/>
      <point x="220" y="314"/>
      <point x="451" y="65"/>
      <point x="810" y="65" type="curve" smooth="yes"/>
      <point x="966" y="65"/>
      <point x="1114" y="108"/>
      <point x="1238" y="190" type="curve"/>
      <point x="1273" y="115" type="line"/>
      <point x="1135" y="25"/>
      <point x="975" y="-22"/>
    </contour>
  </outline>
</glyph>
<glyph name="D" format="1">
  <advance width="1523"/>
  <unicode hex="0044"/>
  <outline>
    <contour>
      <point x="739" y="1456" type="move" name="top"/>
    </contour>
    <contour>
      <point x="224" y="0" type="line"/>
      <point x="224" y="1456" type="line"/>
      <point x="598" y="1456" type="line" smooth="yes"/>
      <point x="1114" y="1456"/>
      <point x="1387" y="1199"/>
      <point x="1387" y="712" type="curve" smooth="yes"/>
      <point x="1387" y="246"/>
      <point x="1122" y="0"/>
      <point x="620" y="0" type="curve" smooth="yes"/>
    </contour>
    <contour>
      <point x="332" y="86" type="line"/>
      <point x="620" y="86" type="line" smooth="yes"/>
      <point x="1050" y="86"/>
      <point x="1277" y="302"/>
      <point x="1277" y="712" type="curve" smooth="yes"/>
      <point x="1277" y="1143"/>
      <point x="1042" y="1370"/>
      <point x="598" y="1370" type="curve" smooth="yes"/>
      <point x="332" y="1370" type="line"/>
    </contour>
  </outline>
</glyph>
<glyph name="E" format="1">
  <advance width="1219"/>
  <unicode hex="0045"/>
  <outline>
    <contour>
      <point x="639" y="1456" type="move" name="top"/>
    </contour>
    <contour>
      <point x="224" y="0" type="line"/>
      <point x="224" y="1456" type="line"/>
      <point x="1034" y="1456" type="line"/>
      <point x="1034" y="1370" type="line"/>
      <point x="332" y="1370" type="line"/>
      <point x="332" y="787" type="line"/>
      <point x="995" y="787" type="line"/>
      <point x="995" y="701" type="line"/>
      <point x="330" y="701" type="line"/>
      <point x="330" y="86" type="line"/>
      <point x="1064" y="86" type="line"/>
      <point x="1064" y="0" type="line"/>
    </contour>
  </outline>
</glyph>
<glyph name="F" format="1">
  <advance width="1090"/>
  <unicode hex="0046"/>
  <outline>
    <contour>
      <point x="629" y="1456" type="move" name="top"/>
    </contour>
    <contour>
      <point x="224" y="0" type="line"/>
      <point x="224" y="1456" type="line"/>
      <point x="1001" y="1456" type="line"/>
      <point x="1001" y="1370" type="line"/>
      <point x="332" y="1370" type="line"/>
      <point x="332" y="779" type="line"/>
      <point x="944" y="779" type="line"/>
      <point x="944" y="693" type="line"/>
      <point x="332" y="693" type="line"/>
      <point x="332" y="0" type="line"/>
    </contour>
  </outline>
</glyph>
<glyph name="G" format="1">
  <advance width="1513"/>
  <unicode hex="0047"/>
  <outline>
    <contour>
      <point x="857" y="1456" type="move" name="top"/>
    </contour>
    <contour>
      <point x="833" y="-21" type="curve" smooth="yes"/>
      <point x="385" y="-21"/>
      <point x="110" y="264"/>
      <point x="110" y="706" type="curve" smooth="yes"/>
      <point x="110" y="1178"/>
      <point x="396" y="1481"/>
      <point x="841" y="1481" type="curve" smooth="yes"/>
      <point x="899" y="1481"/>
      <point x="1090" y="1494"/>
      <point x="1309" y="1334" type="curve"/>
      <point x="1263" y="1257" type="line"/>
      <point x="1075" y="1382"/>
      <point x="926" y="1395"/>
      <point x="841" y="1395" type="curve" smooth="yes"/>
      <point x="464" y="1395"/>
      <point x="220" y="1125"/>
      <point x="220" y="706" type="curve" smooth="yes"/>
      <point x="220" y="317"/>
      <point x="454" y="65"/>
      <point x="835" y="65" type="curve" smooth="yes"/>
      <point x="971" y="65"/>
      <point x="1141" y="85"/>
      <point x="1249" y="135" type="curve"/>
      <point x="1249" y="645" type="line"/>
      <point x="840" y="645" type="line"/>
      <point x="840" y="731" type="line"/>
      <point x="1345" y="731" type="line"/>
      <point x="1345" y="80" type="line"/>
      <point x="1201" y="10"/>
      <point x="1007" y="-21"/>
    </contour>
  </outline>
</glyph>
<glyph name="H" format="1">
  <advance width="1558"/>
  <unicode hex="0048"/>
  <outline>
    <contour>
      <point x="790" y="1456" type="move" name="top"/>
    </contour>
    <contour>
      <point x="224" y="0" type="line"/>
      <point x="224" y="1456" type="line"/>
      <point x="336" y="1456" type="line"/>
      <point x="336" y="786" type="line"/>
      <point x="1230" y="786" type="line"/>
      <point x="1230" y="1456" type="line"/>
      <point x="1334" y="1456" type="line"/>
      <point x="1334" y="0" type="line"/>
      <point x="1226" y="0" type="line"/>
      <point x="1226" y="700" type="line"/>
      <point x="332" y="700" type="line"/>
      <point x="332" y="0" type="line"/>
    </contour>
  </outline>
</glyph>
<glyph name="I" format="1">
  <advance width="592"/>
  <unicode hex="0049"/>
  <outline>
    <contour>
      <point x="298" y="1456" type="move" name="top"/>
    </contour>
    <contour>
      <point x="242" y="0" type="line"/>
      <point x="242" y="1456" type="line"/>
      <point x="350" y="1456" type="line"/>
      <point x="350" y="0" type="line"/>
    </contour>
  </outline>
</glyph>
<glyph name="J" format="1">
  <advance width="667"/>
  <unicode hex="004A"/>
  <outline>
    <contour>
      <point x="334" y="1456" type="move" name="top"/>
    </contour>
    <contour>
      <point x="93" y="-312" type="curve" smooth="yes"/>
      <point x="64" y="-312"/>
      <point x="33" y="-311"/>
      <point x="0" y="-310" type="curve"/>
      <point x="2" y="-223" type="line"/>
      <point x="37" y="-225"/>
      <point x="69" y="-226"/>
      <point x="97" y="-226" type="curve" smooth="yes"/>
      <point x="285" y="-226"/>
      <point x="335" y="-171"/>
      <point x="335" y="132" type="curve" smooth="yes"/>
      <point x="335" y="1456" type="line"/>
      <point x="443" y="1456" type="line"/>
      <point x="443" y="132" type="line" smooth="yes"/>
      <point x="443" y="-250"/>
      <point x="329" y="-312"/>
    </contour>
  </outline>
</glyph>
<glyph name="K" format="1">
  <advance width="1232"/>
  <unicode hex="004B"/>
  <outline>
    <contour>
      <point x="647" y="1456" type="move" name="top"/>
    </contour>
    <contour>
      <point x="224" y="0" type="line"/>
      <point x="224" y="1456" type="line"/>
      <point x="332" y="1456" type="line"/>
      <point x="332" y="774" type="line"/>
      <point x="1046" y="1456" type="line"/>
      <point x="1178" y="1456" type="line"/>
      <point x="449" y="758" type="line"/>
      <point x="1223" y="0" type="line"/>
      <point x="1097" y="0" type="line"/>
      <point x="330" y="745" type="line"/>
      <point x="330" y="0" type="line"/>
    </contour>
  </outline>
</glyph>
<glyph name="L" format="1">
  <advance width="1045"/>
  <unicode hex="004C"/>
  <outline>
    <contour>
      <point x="301" y="1026" type="move" name="caron.alt"/>
    </contour>
    <contour>
      <point x="289" y="1456" type="move" name="top"/>
    </contour>
    <contour>
      <point x="224" y="0" type="line"/>
      <point x="224" y="1456" type="line"/>
      <point x="332" y="1456" type="line"/>
      <point x="332" y="86" type="line"/>
      <point x="1013" y="86" type="line"/>
      <point x="1013" y="0" type="line"/>
    </contour>
  </outline>
</glyph>
<glyph name="M" format="1">
  <advance width="1849"/>
  <unicode hex="004D"/>
  <outline>
    <contour>
      <point x="934" y="1456" type="move" name="top"/>
    </contour>
    <contour>
      <point x="224" y="0" type="line"/>
      <point x="224" y="1456" type="line"/>
      <point x="362" y="1456" type="line"/>
      <point x="835" y="359" type="line"/>
      <point x="924" y="141" type="line"/>
      <point x="1016" y="359" type="line"/>
      <point x="1507" y="1456" type="line"/>
      <point x="1625" y="1456" type="line"/>
      <point x="1625" y="0" type="line"/>
      <point x="1521" y="0" type="line"/>
      <point x="1521" y="1279" type="line"/>
      <point x="1467" y="1134" type="line"/>
      <point x="954" y="0" type="line"/>
      <point x="891" y="0" type="line"/>
      <point x="396" y="1134" type="line"/>
      <point x="328" y="1320" type="line"/>
      <point x="328" y="0" type="line"/>
    </contour>
  </outline>
</glyph>
<glyph name="O" format="1">
  <advance width="1572"/>
  <unicode hex="004F"/>
  <outline>
    <contour>
      <point x="787" y="1456" type="move" name="top"/>
    </contour>
    <contour>
      <point x="788" y="-21" type="curve" smooth="yes"/>
      <point x="375" y="-21"/>
      <point x="110" y="270"/>
      <point x="110" y="723" type="curve" smooth="yes"/>
      <point x="110" y="1184"/>
      <point x="373" y="1481"/>
      <point x="788" y="1481" type="curve" smooth="yes"/>
      <point x="1196" y="1481"/>
      <point x="1462" y="1184"/>
      <point x="1462" y="723" type="curve" smooth="yes"/>
      <point x="1462" y="270"/>
      <point x="1197" y="-21"/>
    </contour>
    <contour>
      <point x="788" y="65" type="curve" smooth="yes"/>
      <point x="1132" y="65"/>
      <point x="1352" y="323"/>
      <point x="1352" y="723" type="curve" smooth="yes"/>
      <point x="1352" y="1132"/>
      <point x="1131" y="1395"/>
      <point x="788" y="1395" type="curve" smooth="yes"/>
      <point x="442" y="1395"/>
      <point x="220" y="1132"/>
      <point x="220" y="723" type="curve" smooth="yes"/>
      <point x="220" y="323"/>
      <point x="444" y="65"/>
    </contour>
  </outline>
</glyph>
<glyph name="P" format="1">
  <advance width="1219"/>
  <unicode hex="0050"/>
  <outline>
    <contour>
      <point x="649" y="1456" type="move" name="top"/>
    </contour>
    <contour>
      <point x="332" y="787" type="line"/>
      <point x="655" y="787" type="line" smooth="yes"/>
      <point x="947" y="787"/>
      <point x="1044" y="875"/>
      <point x="1044" y="1079" type="curve" smooth="yes"/>
      <point x="1044" y="1292"/>
      <point x="927" y="1380"/>
      <point x="655" y="1370" type="curve"/>
      <point x="332" y="1370" type="line"/>
    </contour>
    <contour>
      <point x="224" y="0" type="line"/>
      <point x="224" y="1456" type="line"/>
      <point x="655" y="1456" type="line" smooth="yes"/>
      <point x="999" y="1456"/>
      <point x="1147" y="1343"/>
      <point x="1147" y="1079" type="curve" smooth="yes"/>
      <point x="1147" y="814"/>
      <point x="999" y="701"/>
      <point x="655" y="701" type="curve" smooth="yes"/>
      <point x="332" y="701" type="line"/>
      <point x="332" y="0" type="line"/>
    </contour>
  </outline>
</glyph>
<glyph name="R" format="1">
  <advance width="1373"/>
  <unicode hex="0052"/>
  <outline>
    <contour>
      <point x="592" y="1456" type="move" name="top"/>
    </contour>
    <contour>
      <point x="335" y="758" type="line"/>
      <point x="689" y="758" type="line" smooth="yes"/>
      <point x="931" y="758"/>
      <point x="1038" y="868"/>
      <point x="1038" y="1077" type="curve" smooth="yes"/>
      <point x="1038" y="1292"/>
      <point x="921" y="1380"/>
      <point x="659" y="1370" type="curve"/>
      <point x="335" y="1370" type="line"/>
    </contour>
    <contour>
      <point x="224" y="0" type="line"/>
      <point x="224" y="1456" type="line"/>
      <point x="659" y="1456" type="line" smooth="yes"/>
      <point x="996" y="1456"/>
      <point x="1141" y="1342"/>
      <point x="1141" y="1077" type="curve" smooth="yes"/>
      <point x="1141" y="880"/>
      <point x="1044" y="731"/>
      <point x="843" y="714" type="curve"/>
      <point x="1009" y="686"/>
      <point x="1032" y="627"/>
      <point x="1101" y="431" type="curve" smooth="yes"/>
      <point x="1252" y="0" type="line"/>
      <point x="1151" y="0" type="line"/>
      <point x="1007" y="408" type="line" smooth="yes"/>
      <point x="932" y="619"/>
      <point x="901" y="672"/>
      <point x="718" y="672" type="curve" smooth="yes"/>
      <point x="332" y="672" type="line"/>
      <point x="332" y="0" type="line"/>
    </contour>
  </outline>
</glyph>
<glyph name="S" format="1">
  <advance width="1130"/>
  <unicode hex="0053"/>
  <outline>
    <contour>
      <point x="607" y="1456" type="move" name="top"/>
    </contour>
    <contour>
      <point x="586" y="-21" type="curve" smooth="yes"/>
      <point x="305" y="-21"/>
      <point x="178" y="114"/>
      <point x="142" y="142" type="curve"/>
      <point x="193" y="216" type="line"/>
      <point x="240" y="175"/>
      <point x="355" y="65"/>
      <point x="586" y="65" type="curve" smooth="yes"/>
      <point x="800" y="65"/>
      <point x="933" y="186"/>
      <point x="939" y="361" type="curve" smooth="yes"/>
      <point x="946" y="554"/>
      <point x="881" y="625"/>
      <point x="622" y="693" type="curve" smooth="yes"/>
      <point x="473" y="732" type="line" smooth="yes"/>
      <point x="249" y="791"/>
      <point x="128" y="884"/>
      <point x="128" y="1113" type="curve" smooth="yes"/>
      <point x="128" y="1342"/>
      <point x="296" y="1481"/>
      <point x="579" y="1481" type="curve" smooth="yes"/>
      <point x="848" y="1481"/>
      <point x="947" y="1370"/>
      <point x="972" y="1351" type="curve"/>
      <point x="925" y="1277" type="line"/>
      <point x="894" y="1309"/>
      <point x="791" y="1395"/>
      <point x="579" y="1395" type="curve" smooth="yes"/>
      <point x="362" y="1395"/>
      <point x="236" y="1291"/>
      <point x="236" y="1113" type="curve" smooth="yes"/>
      <point x="236" y="940"/>
      <point x="292" y="875"/>
      <point x="497" y="822" type="curve" smooth="yes"/>
      <point x="645" y="784" type="line" smooth="yes"/>
      <point x="981" y="698"/>
      <point x="1047" y="585"/>
      <point x="1040" y="362" type="curve" smooth="yes"/>
      <point x="1033" y="134"/>
      <point x="866" y="-21"/>
    </contour>
  </outline>
</glyph>
<glyph name="W" format="1">
  <advance width="2037"/>
  <unicode hex="0057"/>
  <outline>
    <contour>
      <point x="1032" y="1456" type="move" name="top"/>
    </contour>
    <contour>
      <point x="514" y="0" type="line"/>
      <point x="138" y="1456" type="line"/>
      <point x="252" y="1456" type="line"/>
      <point x="563" y="214" type="line"/>
      <point x="581" y="103" type="line"/>
      <point x="608" y="214" type="line"/>
      <point x="972" y="1456" type="line"/>
      <point x="1081" y="1456" type="line"/>
      <point x="1445" y="214" type="line"/>
      <point x="1470" y="117" type="line"/>
      <point x="1495" y="214" type="line"/>
      <point x="1789" y="1456" type="line"/>
      <point x="1899" y="1456" type="line"/>
      <point x="1537" y="0" type="line"/>
      <point x="1408" y="0" type="line"/>
      <point x="1029" y="1320" type="line"/>
      <point x="642" y="0" type="line"/>
    </contour>
  </outline>
</glyph>
<glyph name="Y" format="1">
  <advance width="1235"/>
  <unicode hex="0059"/>
  <outline>
    <contour>
      <point x="613" y="1456" type="move" name="top"/>
    </contour>
    <contour>
      <point x="560" y="0" type="line"/>
      <point x="560" y="591" type="line"/>
      <point x="80" y="1456" type="line"/>
      <point x="189" y="1456" type="line"/>
      <point x="616" y="683" type="line"/>
      <point x="1050" y="1456" type="line"/>
      <point x="1155" y="1456" type="line"/>
      <point x="668" y="594" type="line"/>
      <point x="668" y="0" type="line"/>
    </contour>
  </outline>
</glyph>
<glyph name="Z" format="1">
  <advance width="1182"/>
  <unicode hex="005A"/>
  <outline>
    <contour>
      <point x="623" y="1456" type="move" name="top"/>
    </contour>
    <contour>
      <point x="134" y="0" type="line"/>
      <point x="134" y="61" type="line"/>
      <point x="940" y="1370" type="line"/>
      <point x="170" y="1370" type="line"/>
      <point x="170" y="1456" type="line"/>
      <point x="1070" y="1456" type="line"/>
      <point x="1070" y="1399" type="line"/>
      <point x="261" y="86" type="line"/>
      <point x="1066" y="86" type="line"/>
      <point x="1066" y="0" type="line"/>
    </contour>
  </outline>
</glyph>
<glyph name="bracketleft" format="1">
  <advance width="715"/>
  <unicode hex="005B"/>
  <outline>
    <contour>
      <point x="212" y="-322" type="line"/>
      <point x="212" y="1423" type="line"/>
      <point x="608" y="1423" type="line"/>
      <point x="608" y="1349" type="line"/>
      <point x="309" y="1349" type="line"/>
      <point x="309" y="-248" type="line"/>
      <point x="609" y="-248" type="line"/>
      <point x="609" y="-322" type="line"/>
    </contour>
  </outline>
</glyph>
<glyph name="backslash" format="1">
  <advance width="791"/>
  <unicode hex="005C"/>
  <outline>
    <contour>
      <point x="574" y="66" type="line"/>
      <point x="138" y="1456" type="line"/>
      <point x="234" y="1456" type="line"/>
      <point x="670" y="66" type="line"/>
    </contour>
  </outline>
</glyph>
<glyph name="asciicircum" format="1">
  <advance width="1721"/>
  <unicode hex="005E"/>
  <outline>
    <contour>
      <point x="388" y="604" type="line"/>
      <point x="827" y="1456" type="line"/>
      <point x="884" y="1456" type="line"/>
      <point x="1333" y="604" type="line"/>
      <point x="1250" y="604" type="line"/>
      <point x="855" y="1362" type="line"/>
      <point x="469" y="604" type="line"/>
    </contour>
  </outline>
</glyph>
<glyph name="underscore" format="1">
  <advance width="847"/>
  <unicode hex="005F"/>
  <outline>
    <contour>
      <point x="7" y="-286" type="line"/>
      <point x="7" y="-206" type="line"/>
      <point x="840" y="-206" type="line"/>
      <point x="840" y="-286" type="line"/>
    </contour>
  </outline>
</glyph>
<glyph name="grave" format="1">
  <advance width="581"/>
  <unicode hex="0060"/>
  <outline>
    <contour>
      <point x="475" y="1026" type="move" name="_top"/>
    </contour>
    <contour>
      <point x="445" y="1174" type="line"/>
      <point x="127" y="1456" type="line"/>
      <point x="262" y="1456" type="line"/>
      <point x="499" y="1174" type="line"/>
    </contour>
  </outline>
</glyph>
<glyph name="d" format="1">
  <advance width="1256"/>
  <unicode hex="0064"/>
  <outline>
    <contour>
      <point x="911" y="1026" type="move" name="caron.alt"/>
    </contour>
    <contour>
      <point x="581" y="1026" type="move" name="top"/>
    </contour>
    <contour>
      <point x="560" y="61" type="curve" smooth="yes"/>
      <point x="805" y="61"/>
      <point x="962" y="241"/>
      <point x="962" y="520" type="curve" smooth="yes"/>
      <point x="962" y="794"/>
      <point x="805" y="970"/>
      <point x="560" y="970" type="curve" smooth="yes"/>
      <point x="326" y="970"/>
      <point x="194" y="794"/>
      <point x="194" y="520" type="curve" smooth="yes"/>
      <point x="194" y="241"/>
      <point x="326" y="61"/>
    </contour>
    <contour>
      <point x="560" y="-21" type="curve" smooth="yes"/>
      <point x="278" y="-21"/>
      <point x="96" y="191"/>
      <point x="96" y="520" type="curve" smooth="yes"/>
      <point x="96" y="844"/>
      <point x="278" y="1052"/>
      <point x="560" y="1052" type="curve" smooth="yes"/>
      <point x="741" y="1052"/>
      <point x="899" y="953"/>
      <point x="962" y="799" type="curve"/>
      <point x="962" y="1516" type="line"/>
      <point x="1060" y="1516" type="line"/>
      <point x="1060" y="268" type="line" smooth="yes"/>
      <point x="1060" y="162"/>
      <point x="1067" y="2"/>
      <point x="1067" y="0" type="curve" smooth="yes"/>
      <point x="968" y="0" type="line"/>
      <point x="963" y="239" type="line"/>
      <point x="906" y="81"/>
      <point x="748" y="-21"/>
    </contour>
  </outline>
</glyph>
<glyph name="g" format="1">
  <advance width="1268"/>
  <unicode hex="0067"/>
  <outline>
    <contour>
      <point x="580" y="1026" type="move" name="top"/>
    </contour>
    <contour>
      <point x="564" y="66" type="curve" smooth="yes"/>
      <point x="809" y="66"/>
      <point x="966" y="241"/>
      <point x="966" y="514" type="curve" smooth="yes"/>
      <point x="966" y="792"/>
      <point x="815" y="970"/>
      <point x="580" y="970" type="curve" smooth="yes"/>
      <point x="346" y="970"/>
      <point x="196" y="792"/>
      <point x="196" y="514" type="curve" smooth="yes"/>
      <point x="196" y="241"/>
      <point x="340" y="66"/>
    </contour>
    <contour>
      <point x="556" y="-443" type="curve" smooth="yes"/>
      <point x="444" y="-443"/>
      <point x="322" y="-424"/>
      <point x="207" y="-377" type="curve"/>
      <point x="219" y="-291" type="line"/>
      <point x="334" y="-337"/>
      <point x="455" y="-359"/>
      <point x="556" y="-359" type="curve" smooth="yes"/>
      <point x="794" y="-359"/>
      <point x="966" y="-230"/>
      <point x="966" y="114" type="curve" smooth="yes"/>
      <point x="966" y="236" type="line"/>
      <point x="904" y="72"/>
      <point x="747" y="-16"/>
      <point x="564" y="-16" type="curve" smooth="yes"/>
      <point x="279" y="-16"/>
      <point x="96" y="191"/>
      <point x="96" y="514" type="curve" smooth="yes"/>
      <point x="96" y="841"/>
      <point x="285" y="1052"/>
      <point x="580" y="1052" type="curve" smooth="yes"/>
      <point x="760" y="1052"/>
      <point x="905" y="953"/>
      <point x="966" y="817" type="curve"/>
      <point x="976" y="1026" type="line"/>
      <point x="1071" y="1026" type="line"/>
      <point x="1064" y="837" type="line"/>
      <point x="1064" y="114" type="line" smooth="yes"/>
      <point x="1064" y="-278"/>
      <point x="842" y="-443"/>
    </contour>
  </outline>
</glyph>
<glyph name="k" format="1">
  <advance width="1045"/>
  <unicode hex="006B"/>
  <outline>
    <contour>
      <point x="660" y="1026" type="move" name="top"/>
    </contour>
    <contour>
      <point x="196" y="0" type="line"/>
      <point x="196" y="1516" type="line"/>
      <point x="294" y="1516" type="line"/>
      <point x="294" y="549" type="line"/>
      <point x="842" y="1026" type="line"/>
      <point x="971" y="1026" type="line"/>
      <point x="413" y="543" type="line"/>
      <point x="1013" y="0" type="line"/>
      <point x="885" y="0" type="line"/>
      <point x="294" y="535" type="line"/>
      <point x="294" y="0" type="line"/>
    </contour>
  </outline>
</glyph>
<glyph name="l" format="1">
  <advance width="509"/>
  <unicode hex="006C"/>
  <outline>
    <contour>
      <point x="180" y="1026" type="move" name="caron.alt"/>
    </contour>
    <contour>
      <point x="250" y="1456" type="move" name="top"/>
    </contour>
    <contour>
      <point x="205" y="0" type="line"/>
      <point x="205" y="1516" type="line"/>
      <point x="303" y="1516" type="line"/>
      <point x="303" y="0" type="line"/>
    </contour>
  </outline>
</glyph>
<glyph name="m" format="1">
  <advance width="1946"/>
  <unicode hex="006D"/>
  <outline>
    <contour>
      <point x="999" y="1026" type="move" name="top"/>
    </contour>
    <contour>
      <point x="204" y="0" type="line"/>
      <point x="204" y="880" type="line" smooth="yes"/>
      <point x="204" y="918"/>
      <point x="198" y="1026"/>
      <point x="198" y="1026" type="curve"/>
      <point x="287" y="1026" type="line"/>
      <point x="297" y="820" type="line"/>
      <point x="367" y="972"/>
      <point x="500" y="1052"/>
      <point x="681" y="1052" type="curve" smooth="yes"/>
      <point x="859" y="1052"/>
      <point x="971" y="962"/>
      <point x="1011" y="789" type="curve"/>
      <point x="1083" y="970"/>
      <point x="1240" y="1052"/>
      <point x="1408" y="1052" type="curve" smooth="yes"/>
      <point x="1636" y="1052"/>
      <point x="1756" y="903"/>
      <point x="1756" y="622" type="curve" smooth="yes"/>
      <point x="1756" y="0" type="line"/>
      <point x="1658" y="0" type="line"/>
      <point x="1658" y="622" type="line" smooth="yes"/>
      <point x="1658" y="850"/>
      <point x="1572" y="970"/>
      <point x="1408" y="970" type="curve" smooth="yes"/>
      <point x="1197" y="970"/>
      <point x="1069" y="849"/>
      <point x="1029" y="622" type="curve"/>
      <point x="1029" y="0" type="line"/>
      <point x="931" y="0" type="line"/>
      <point x="931" y="622" type="line" smooth="yes"/>
      <point x="931" y="850"/>
      <point x="845" y="970"/>
      <point x="681" y="970" type="curve" smooth="yes"/>
      <point x="485" y="970"/>
      <point x="354" y="869"/>
      <point x="302" y="678" type="curve"/>
      <point x="302" y="0" type="line"/>
    </contour>
  </outline>
</glyph>
<glyph name="o" format="1">
  <advance width="1230"/>
  <unicode hex="006F"/>
  <outline>
    <contour>
      <point x="617" y="1026" type="move" name="top"/>
    </contour>
    <contour>
      <point x="615" y="-21" type="curve" smooth="yes"/>
      <point x="299" y="-21"/>
      <point x="96" y="187"/>
      <point x="96" y="510" type="curve" smooth="yes"/>
      <point x="96" y="840"/>
      <point x="299" y="1052"/>
      <point x="615" y="1052" type="curve" smooth="yes"/>
      <point x="931" y="1052"/>
      <point x="1134" y="840"/>
      <point x="1134" y="510" type="curve" smooth="yes"/>
      <point x="1134" y="187"/>
      <point x="931" y="-21"/>
    </contour>
    <contour>
      <point x="615" y="61" type="curve" smooth="yes"/>
      <point x="880" y="61"/>
      <point x="1034" y="237"/>
      <point x="1034" y="510" type="curve" smooth="yes"/>
      <point x="1034" y="790"/>
      <point x="880" y="970"/>
      <point x="615" y="970" type="curve" smooth="yes"/>
      <point x="350" y="970"/>
      <point x="196" y="790"/>
      <point x="196" y="510" type="curve" smooth="yes"/>
      <point x="196" y="237"/>
      <point x="350" y="61"/>
    </contour>
  </outline>
</glyph>
<glyph name="q" format="1">
  <advance width="1256"/>
  <unicode hex="0071"/>
  <outline>
    <contour>
      <point x="558" y="66" type="curve" smooth="yes"/>
      <point x="773" y="66"/>
      <point x="927" y="224"/>
      <point x="927" y="557" type="curve" smooth="yes"/>
      <point x="927" y="818"/>
      <point x="774" y="965"/>
      <point x="579" y="965" type="curve" smooth="yes"/>
      <point x="365" y="965"/>
      <point x="203" y="802"/>
      <point x="203" y="500" type="curve" smooth="yes"/>
      <point x="203" y="209"/>
      <point x="362" y="66"/>
    </contour>
    <contour>
      <point x="938" y="-449" type="line"/>
      <point x="938" y="237" type="line"/>
      <point x="924" y="136"/>
      <point x="805" y="-21"/>
      <point x="554" y="-21" type="curve" smooth="yes"/>
      <point x="317" y="-21"/>
      <point x="92" y="132"/>
      <point x="92" y="490" type="curve" smooth="yes"/>
      <point x="92" y="867"/>
      <point x="296" y="1052"/>
      <point x="569" y="1052" type="curve" smooth="yes"/>
      <point x="771" y="1052"/>
      <point x="897" y="953"/>
      <point x="936" y="843" type="curve"/>
      <point x="936" y="1026" type="line"/>
      <point x="1045" y="1026" type="line"/>
      <point x="1051" y="1102"/>
      <point x="1041" y="801"/>
      <point x="1041" y="872" type="curve" smooth="yes"/>
      <point x="1041" y="-449" type="line"/>
    </contour>
  </outline>
</glyph>
<glyph name="s" format="1">
  <advance width="935"/>
  <unicode hex="0073"/>
  <outline>
    <contour>
      <point x="466" y="1026" type="move" name="top"/>
    </contour>
    <contour>
      <point x="477" y="-21" type="curve" smooth="yes"/>
      <point x="282" y="-21"/>
      <point x="155" y="72"/>
      <point x="122" y="96" type="curve"/>
      <point x="159" y="172" type="line"/>
      <point x="192" y="151"/>
      <point x="305" y="65"/>
      <point x="473" y="65" type="curve" smooth="yes"/>
      <point x="594" y="65"/>
      <point x="744" y="95"/>
      <point x="744" y="262" type="curve" smooth="yes"/>
      <point x="744" y="375"/>
      <point x="690" y="419"/>
      <point x="559" y="459" type="curve" smooth="yes"/>
      <point x="353" y="522" type="line" smooth="yes"/>
      <point x="204" y="568"/>
      <point x="117" y="629"/>
      <point x="117" y="783" type="curve" smooth="yes"/>
      <point x="117" y="971"/>
      <point x="268" y="1052"/>
      <point x="492" y="1052" type="curve" smooth="yes"/>
      <point x="675" y="1052"/>
      <point x="762" y="999"/>
      <point x="798" y="977" type="curve"/>
      <point x="766" y="904" type="line"/>
      <point x="733" y="922"/>
      <point x="644" y="970"/>
      <point x="492" y="970" type="curve" smooth="yes"/>
      <point x="299" y="970"/>
      <point x="215" y="903"/>
      <point x="214" y="791" type="curve" smooth="yes"/>
      <point x="214" y="683"/>
      <point x="254" y="651"/>
      <point x="390" y="609" type="curve" smooth="yes"/>
      <point x="591" y="546" type="line" smooth="yes"/>
      <point x="756" y="494"/>
      <point x="838" y="428"/>
      <point x="838" y="280" type="curve" smooth="yes"/>
      <point x="838" y="69"/>
      <point x="678" y="-21"/>
    </contour>
  </outline>
</glyph>
<glyph name="x" format="1">
  <advance width="1114"/>
  <unicode hex="0078"/>
  <outline>
    <contour>
      <point x="58" y="0" type="line"/>
      <point x="502" y="526" type="line"/>
      <point x="91" y="1030" type="line"/>
      <point x="202" y="1026" type="line"/>
      <point x="555" y="582" type="line"/>
      <point x="919" y="1026" type="line"/>
      <point x="1034" y="1026" type="line"/>
      <point x="614" y="511" type="line"/>
      <point x="1052" y="0" type="line"/>
      <point x="945" y="0" type="line"/>
      <point x="559" y="460" type="line"/>
      <point x="170" y="0" type="line"/>
    </contour>
  </outline>
</glyph>
<glyph name="exclamdown" format="1">
  <advance width="391"/>
  <unicode hex="00A1"/>
  <outline>
    <contour>
      <point x="108" y="1104" type="line"/>
      <point x="265" y="1104" type="line"/>
      <point x="265" y="944" type="line"/>
      <point x="108" y="944" type="line"/>
    </contour>
    <contour>
      <point x="161" y="741" type="line"/>
      <point x="217" y="741" type="line"/>
      <point x="249" y="-352" type="line"/>
      <point x="129" y="-352" type="line"/>
    </contour>
  </outline>
</glyph>
<glyph name="sterling" format="1">
  <advance width="1136"/>
  <unicode hex="00A3"/>
  <outline>
    <contour>
      <point x="145" y="0" type="line"/>
      <point x="145" y="104" type="line"/>
      <point x="296" y="192"/>
      <point x="324" y="450"/>
      <point x="324" y="550" type="curve" smooth="yes"/>
      <point x="324" y="714" type="line"/>
      <point x="125" y="714" type="line"/>
      <point x="125" y="791" type="line"/>
      <point x="325" y="791" type="line"/>
      <point x="325" y="1001" type="line" smooth="yes"/>
      <point x="325" y="1277"/>
      <point x="433" y="1474"/>
      <point x="721" y="1474" type="curve" smooth="yes"/>
      <point x="869" y="1474"/>
      <point x="953" y="1427"/>
      <point x="960" y="1399" type="curve"/>
      <point x="925" y="1327" type="line"/>
      <point x="925" y="1339"/>
      <point x="826" y="1383"/>
      <point x="711" y="1376" type="curve" smooth="yes"/>
      <point x="497" y="1363"/>
      <point x="434" y="1206"/>
      <point x="434" y="1026" type="curve" smooth="yes"/>
      <point x="434" y="791" type="line"/>
      <point x="826" y="791" type="line"/>
      <point x="826" y="714" type="line"/>
      <point x="438" y="714" type="line"/>
      <point x="438" y="552" type="line" smooth="yes"/>
      <point x="438" y="269"/>
      <point x="318" y="113"/>
      <point x="279" y="96" type="curve"/>
      <point x="985" y="96" type="line"/>
      <point x="985" y="0" type="line"/>
    </contour>
  </outline>
</glyph>
<glyph name="currency" format="1">
  <advance width="1218"/>
  <unicode hex="00A4"/>
  <outline>
    <contour>
      <point x="609" y="714" type="curve" smooth="yes"/>
      <point x="783" y="714"/>
      <point x="911" y="856"/>
      <point x="911" y="1030" type="curve" smooth="yes"/>
      <point x="911" y="1204"/>
      <point x="783" y="1335"/>
      <point x="609" y="1335" type="curve" smooth="yes"/>
      <point x="435" y="1335"/>
      <point x="307" y="1204"/>
      <point x="307" y="1030" type="curve" smooth="yes"/>
      <point x="307" y="856"/>
      <point x="435" y="714"/>
    </contour>
    <contour>
      <point x="171" y="547" type="line"/>
      <point x="120" y="598" type="line"/>
      <point x="307" y="785" type="line"/>
      <point x="252" y="851"/>
      <point x="219" y="935"/>
      <point x="219" y="1028" type="curve" smooth="yes"/>
      <point x="219" y="1125"/>
      <point x="255" y="1213"/>
      <point x="314" y="1280" type="curve"/>
      <point x="119" y="1475" type="line"/>
      <point x="170" y="1526" type="line"/>
      <point x="367" y="1330" type="line"/>
      <point x="433" y="1382"/>
      <point x="518" y="1413"/>
      <point x="610" y="1413" type="curve" smooth="yes"/>
      <point x="702" y="1413"/>
      <point x="786" y="1382"/>
      <point x="853" y="1331" type="curve"/>
      <point x="1048" y="1526" type="line"/>
      <point x="1099" y="1475" type="line"/>
      <point x="906" y="1282" type="line"/>
      <point x="966" y="1214"/>
      <point x="1002" y="1126"/>
      <point x="1002" y="1028" type="curve" smooth="yes"/>
      <point x="1002" y="935"/>
      <point x="969" y="850"/>
      <point x="913" y="783" type="curve"/>
      <point x="1099" y="598" type="line"/>
      <point x="1048" y="547" type="line"/>
      <point x="862" y="733" type="line"/>
      <point x="794" y="677"/>
      <point x="706" y="643"/>
      <point x="610" y="643" type="curve" smooth="yes"/>
      <point x="514" y="643"/>
      <point x="426" y="677"/>
      <point x="358" y="734" type="curve"/>
    </contour>
  </outline>
</glyph>
<glyph name="yen" format="1">
  <advance width="1143"/>
  <unicode hex="00A5"/>
  <outline>
    <contour>
      <point x="514" y="0" type="line"/>
      <point x="622" y="0" type="line"/>
      <point x="622" y="349" type="line"/>
      <point x="897" y="349" type="line"/>
      <point x="897" y="415" type="line"/>
      <point x="622" y="415" type="line"/>
      <point x="622" y="533" type="line"/>
      <point x="899" y="533" type="line"/>
      <point x="899" y="599" type="line"/>
      <point x="624.825" y="599" type="line"/>
      <point x="1109" y="1456" type="line"/>
      <point x="1004" y="1456" type="line"/>
      <point x="570" y="683" type="line"/>
      <point x="143" y="1456" type="line"/>
      <point x="34" y="1456" type="line"/>
      <point x="509.561" y="599" type="line"/>
      <point x="232" y="599" type="line"/>
      <point x="232" y="533" type="line"/>
      <point x="514" y="533" type="line"/>
      <point x="514" y="415" type="line"/>
      <point x="232" y="415" type="line"/>
      <point x="232" y="349" type="line"/>
      <point x="514" y="349" type="line"/>
    </contour>
  </outline>
</glyph>
<glyph name="section" format="1">
  <advance width="1024"/>
  <unicode hex="00A7"/>
  <outline>
    <contour>
      <point x="573" y="476" type="curve"/>
      <point x="698" y="532"/>
      <point x="776" y="614"/>
      <point x="776" y="723" type="curve" smooth="yes"/>
      <point x="776" y="809"/>
      <point x="712" y="837"/>
      <point x="522" y="930" type="curve"/>
      <point x="370" y="878"/>
      <point x="277" y="818"/>
      <point x="277" y="719" type="curve" smooth="yes"/>
      <point x="277" y="604"/>
      <point x="388" y="557"/>
    </contour>
    <contour>
      <point x="497" y="-91" type="curve" smooth="yes"/>
      <point x="410" y="-91"/>
      <point x="314" y="-74"/>
      <point x="219" y="-41" type="curve"/>
      <point x="219" y="33" type="line"/>
      <point x="318" y="-5"/>
      <point x="414" y="-25"/>
      <point x="497" y="-25" type="curve" smooth="yes"/>
      <point x="648" y="-25"/>
      <point x="756" y="41"/>
      <point x="756" y="179" type="curve"/>
      <point x="760" y="311"/>
      <point x="628" y="357"/>
      <point x="448" y="447" type="curve" smooth="yes"/>
      <point x="291" y="526"/>
      <point x="201" y="571"/>
      <point x="201" y="716" type="curve" smooth="yes"/>
      <point x="201" y="844"/>
      <point x="329" y="932"/>
      <point x="462" y="960" type="curve"/>
      <point x="292" y="1049"/>
      <point x="232" y="1102"/>
      <point x="232" y="1230" type="curve" smooth="yes"/>
      <point x="232" y="1420"/>
      <point x="412" y="1500"/>
      <point x="586" y="1500" type="curve" smooth="yes"/>
      <point x="657" y="1500"/>
      <point x="727" y="1486"/>
      <point x="784" y="1462" type="curve"/>
      <point x="784" y="1391" type="line"/>
      <point x="726" y="1415"/>
      <point x="656" y="1429"/>
      <point x="587" y="1429" type="curve" smooth="yes"/>
      <point x="448" y="1429"/>
      <point x="316" y="1372"/>
      <point x="316" y="1230" type="curve" smooth="yes"/>
      <point x="316" y="1136"/>
      <point x="346" y="1107"/>
      <point x="547" y="1002" type="curve" smooth="yes"/>
      <point x="752" y="895"/>
      <point x="861" y="860"/>
      <point x="861" y="720" type="curve" smooth="yes"/>
      <point x="861" y="590"/>
      <point x="739" y="496"/>
      <point x="629" y="447" type="curve"/>
      <point x="762" y="381"/>
      <point x="839" y="310"/>
      <point x="839" y="190" type="curve" smooth="yes"/>
      <point x="839" y="-5"/>
      <point x="690" y="-91"/>
    </contour>
  </outline>
</glyph>
<glyph name="ordfeminine" format="1">
  <advance width="691"/>
  <unicode hex="00AA"/>
  <outline>
    <contour>
      <point x="329" y="880" type="curve" smooth="yes"/>
      <point x="508" y="880"/>
      <point x="542" y="1007"/>
      <point x="542" y="1105" type="curve" smooth="yes"/>
      <point x="542" y="1137" type="line"/>
      <point x="313" y="1137"/>
      <point x="168" y="1147"/>
      <point x="168" y="1012" type="curve" smooth="yes"/>
      <point x="168" y="923"/>
      <point x="221" y="880"/>
    </contour>
    <contour>
      <point x="313" y="802" type="curve" smooth="yes"/>
      <point x="157" y="802"/>
      <point x="70" y="890"/>
      <point x="70" y="1003" type="curve" smooth="yes"/>
      <point x="70" y="1121"/>
      <point x="169" y="1200"/>
      <point x="371" y="1200" type="curve" smooth="yes"/>
      <point x="540" y="1200" type="line"/>
      <point x="540" y="1216" type="line" smooth="yes"/>
      <point x="540" y="1347"/>
      <point x="520" y="1405"/>
      <point x="380" y="1405" type="curve" smooth="yes"/>
      <point x="242" y="1405"/>
      <point x="134" y="1351"/>
      <point x="134" y="1351" type="curve"/>
      <point x="115" y="1413" type="line"/>
      <point x="115" y="1413"/>
      <point x="232" y="1478"/>
      <point x="374" y="1478" type="curve" smooth="yes"/>
      <point x="507" y="1478"/>
      <point x="614" y="1416"/>
      <point x="621" y="1284" type="curve" smooth="yes"/>
      <point x="620" y="1241"/>
      <point x="616" y="877"/>
      <point x="616" y="919" type="curve" smooth="yes"/>
      <point x="616" y="919"/>
      <point x="612" y="937"/>
      <point x="621" y="809" type="curve"/>
      <point x="529" y="809" type="line"/>
      <point x="533" y="900" type="line"/>
      <point x="481" y="824"/>
      <point x="389" y="802"/>
    </contour>
  </outline>
</glyph>
<glyph name="twosuperior" format="1">
  <advance width="942"/>
  <unicode hex="00B2"/>
  <outline>
    <contour>
      <point x="192" y="631" type="line"/>
      <point x="192" y="701" type="line"/>
      <point x="485" y="1006" type="line" smooth="yes"/>
      <point x="603" y="1129"/>
      <point x="625" y="1178"/>
      <point x="625" y="1248" type="curve" smooth="yes"/>
      <point x="625" y="1317"/>
      <point x="587" y="1392"/>
      <point x="459" y="1392" type="curve" smooth="yes"/>
      <point x="371" y="1392"/>
      <point x="293" y="1352"/>
      <point x="288" y="1222" type="curve"/>
      <point x="213" y="1226" type="line"/>
      <point x="216" y="1371"/>
      <point x="311" y="1456"/>
      <point x="459" y="1456" type="curve" smooth="yes"/>
      <point x="621" y="1456"/>
      <point x="700" y="1359"/>
      <point x="700" y="1251" type="curve" smooth="yes"/>
      <point x="700" y="1146"/>
      <point x="670" y="1090"/>
      <point x="535" y="952" type="curve" smooth="yes"/>
      <point x="289" y="700" type="line"/>
      <point x="705" y="700" type="line"/>
      <point x="705" y="631" type="line"/>
    </contour>
  </outline>
</glyph>
<glyph name="threesuperior" format="1">
  <advance width="878"/>
  <unicode hex="00B3"/>
  <outline>
    <contour>
      <point x="398" y="605" type="curve" smooth="yes"/>
      <point x="302" y="605"/>
      <point x="204" y="640"/>
      <point x="148" y="695" type="curve"/>
      <point x="187" y="757" type="line"/>
      <point x="237" y="708"/>
      <point x="319" y="674"/>
      <point x="398" y="674" type="curve" smooth="yes"/>
      <point x="500" y="674"/>
      <point x="570" y="741"/>
      <point x="570" y="840" type="curve" smooth="yes"/>
      <point x="570" y="939"/>
      <point x="505" y="1007"/>
      <point x="375" y="1007" type="curve" smooth="yes"/>
      <point x="278" y="1007" type="line"/>
      <point x="278" y="1078" type="line"/>
      <point x="375" y="1078" type="line" smooth="yes"/>
      <point x="497" y="1078"/>
      <point x="556" y="1139"/>
      <point x="556" y="1228" type="curve" smooth="yes"/>
      <point x="556" y="1322"/>
      <point x="487" y="1386"/>
      <point x="384" y="1386" type="curve" smooth="yes"/>
      <point x="309" y="1386"/>
      <point x="247" y="1363"/>
      <point x="203" y="1302" type="curve"/>
      <point x="156" y="1346" type="line"/>
      <point x="191" y="1413"/>
      <point x="280" y="1456"/>
      <point x="383" y="1456" type="curve" smooth="yes"/>
      <point x="536" y="1456"/>
      <point x="634" y="1367"/>
      <point x="634" y="1228" type="curve" smooth="yes"/>
      <point x="634" y="1143"/>
      <point x="581" y="1072"/>
      <point x="498" y="1047" type="curve"/>
      <point x="589" y="1021"/>
      <point x="648" y="940"/>
      <point x="648" y="840" type="curve" smooth="yes"/>
      <point x="648" y="697"/>
      <point x="550" y="605"/>
    </contour>
  </outline>
</glyph>
<glyph name="cedilla" format="1">
  <advance width="529"/>
  <unicode hex="00B8"/>
  <outline>
    <contour>
      <point x="240" y="-389" type="curve" smooth="yes"/>
      <point x="158" y="-386"/>
      <point x="99" y="-356"/>
      <point x="86" y="-350" type="curve"/>
      <point x="98" y="-292" type="line"/>
      <point x="121" y="-303"/>
      <point x="183" y="-319"/>
      <point x="231" y="-321" type="curve" smooth="yes"/>
      <point x="326" y="-325"/>
      <point x="349" y="-301"/>
      <point x="349" y="-254" type="curve" smooth="yes"/>
      <point x="349" y="-201"/>
      <point x="270" y="-189"/>
      <point x="173" y="-189" type="curve" smooth="yes"/>
      <point x="167" y="-189" type="line"/>
      <point x="201" y="5" type="line"/>
      <point x="260" y="5" type="line"/>
      <point x="236" y="-139" type="line"/>
      <point x="317" y="-142"/>
      <point x="438" y="-154"/>
      <point x="438" y="-261" type="curve" smooth="yes"/>
      <point x="438" y="-375"/>
      <point x="325" y="-392"/>
    </contour>
  </outline>
</glyph>
<glyph name="onesuperior" format="1">
  <advance width="896"/>
  <unicode hex="00B9"/>
  <outline>
    <contour>
      <point x="238" y="649" type="line"/>
      <point x="238" y="710" type="line"/>
      <point x="392" y="710" type="line"/>
      <point x="392" y="1372" type="line"/>
      <point x="243" y="1296" type="line"/>
      <point x="245" y="1370" type="line"/>
      <point x="398" y="1456" type="line"/>
      <point x="466" y="1456" type="line"/>
      <point x="466" y="710" type="line"/>
      <point x="606" y="710" type="line"/>
      <point x="606" y="649" type="line"/>
    </contour>
  </outline>
</glyph>
<glyph name="AE" format="1">
  <advance width="1860"/>
  <unicode hex="00C6"/>
  <outline>
    <contour>
      <point x="1265" y="1456" type="move" name="top"/>
    </contour>
    <contour>
      <point x="422" y="536" type="line"/>
      <point x="1027" y="536" type="line"/>
      <point x="961" y="1369" type="line"/>
      <point x="895" y="1369" type="line"/>
    </contour>
    <contour>
      <point x="35" y="0" type="line"/>
      <point x="869" y="1456" type="line"/>
      <point x="1777" y="1456" type="line"/>
      <point x="1777" y="1369" type="line"/>
      <point x="1044" y="1369" type="line"/>
      <point x="1092" y="796" type="line"/>
      <point x="1707" y="796" type="line"/>
      <point x="1707" y="719" type="line"/>
      <point x="1090" y="719" type="line"/>
      <point x="1147" y="83" type="line"/>
      <point x="1801" y="83" type="line"/>
      <point x="1801" y="0" type="line"/>
      <point x="1080" y="0" type="line"/>
      <point x="1037" y="459" type="line"/>
      <point x="387" y="459" type="line"/>
      <point x="124" y="0" type="line"/>
    </contour>
  </outline>
</glyph>
<glyph name="Oslash" format="1">
  <advance width="1572"/>
  <unicode hex="00D8"/>
  <outline>
    <contour>
      <point x="788" y="-21" type="curve" smooth="yes"/>
      <point x="1197" y="-21"/>
      <point x="1462" y="270"/>
      <point x="1462" y="723" type="curve" smooth="yes"/>
      <point x="1462" y="1007.27"/>
      <point x="1360.86" y="1229.17"/>
      <point x="1187.65" y="1357.54" type="curve"/>
      <point x="1305" y="1572" type="line"/>
      <point x="1245" y="1605" type="line"/>
      <point x="1129.85" y="1395.35" type="line"/>
      <point x="1032.88" y="1451.03"/>
      <point x="917.605" y="1481"/>
      <point x="788" y="1481" type="curve" smooth="yes"/>
      <point x="373" y="1481"/>
      <point x="110" y="1184"/>
      <point x="110" y="723" type="curve" smooth="yes"/>
      <point x="110" y="430.876"/>
      <point x="220.2" y="206.121"/>
      <point x="409.225" y="83.3259" type="curve"/>
      <point x="297" y="-121" type="line"/>
      <point x="360" y="-155" type="line"/>
      <point x="471.16" y="48.1462" type="line"/>
      <point x="562.675" y="3.07178"/>
      <point x="669.216" y="-21"/>
    </contour>
    <contour>
      <point x="1140.48" y="1271.35" type="line"/>
      <point x="1274.66" y="1155.8"/>
      <point x="1352" y="964.946"/>
      <point x="1352" y="723" type="curve" smooth="yes"/>
      <point x="1352" y="323"/>
      <point x="1132" y="65"/>
      <point x="788" y="65" type="curve" smooth="yes"/>
      <point x="685.866" y="65"/>
      <point x="594.311" y="87.7426"/>
      <point x="516.055" y="130.192" type="curve"/>
    </contour>
    <contour>
      <point x="1084.61" y="1312.99" type="curve"/>
      <point x="456.024" y="168.532" type="line"/>
      <point x="307.077" y="279.41"/>
      <point x="220" y="473.605"/>
      <point x="220" y="723" type="curve" smooth="yes"/>
      <point x="220" y="1132"/>
      <point x="442" y="1395"/>
      <point x="788" y="1395" type="curve" smooth="yes"/>
      <point x="901.399" y="1395"/>
      <point x="1001.46" y="1366.25"/>
    </contour>
  </outline>
</glyph>
<glyph name="Thorn" format="1">
  <advance width="1255"/>
  <unicode hex="00DE"/>
  <outline>
    <contour>
      <point x="325" y="460" type="line"/>
      <point x="631" y="460" type="line" smooth="yes"/>
      <point x="883" y="460"/>
      <point x="1067" y="558"/>
      <point x="1067" y="779" type="curve" smooth="yes"/>
      <point x="1067" y="1043"/>
      <point x="868" y="1110"/>
      <point x="580" y="1110" type="curve" smooth="yes"/>
      <point x="325" y="1110" type="line"/>
    </contour>
    <contour>
      <point x="213" y="0" type="line"/>
      <point x="213" y="1456" type="line"/>
      <point x="324" y="1456" type="line"/>
      <point x="324" y="1211" type="line"/>
      <point x="564" y="1211" type="line" smooth="yes"/>
      <point x="902" y="1211"/>
      <point x="1184" y="1132"/>
      <point x="1184" y="783" type="curve" smooth="yes"/>
      <point x="1184" y="486"/>
      <point x="961" y="358"/>
      <point x="643" y="358" type="curve" smooth="yes"/>
      <point x="325" y="358" type="line"/>
      <point x="325" y="0" type="line"/>
    </contour>
  </outline>
</glyph>
<glyph name="germandbls" format="1">
  <advance width="1240"/>
  <unicode hex="00DF"/>
  <outline>
    <contour>
      <point x="745" y="-28" type="curve" smooth="yes"/>
      <point x="658" y="-28"/>
      <point x="539" y="-3"/>
      <point x="441" y="37" type="curve"/>
      <point x="450" y="120" type="line"/>
      <point x="552" y="80"/>
      <point x="668" y="54"/>
      <point x="745" y="54" type="curve" smooth="yes"/>
      <point x="931" y="54"/>
      <point x="1050" y="162"/>
      <point x="1050" y="329" type="curve" smooth="yes"/>
      <point x="1050" y="563"/>
      <point x="906" y="690"/>
      <point x="537" y="805" type="curve"/>
      <point x="537" y="889" type="line"/>
      <point x="869" y="962"/>
      <point x="894" y="1059"/>
      <point x="894" y="1208" type="curve" smooth="yes"/>
      <point x="894" y="1354"/>
      <point x="777" y="1448"/>
      <point x="595" y="1448" type="curve" smooth="yes"/>
      <point x="398" y="1448"/>
      <point x="294" y="1315"/>
      <point x="294" y="1062" type="curve" smooth="yes"/>
      <point x="294" y="0" type="line"/>
      <point x="196" y="0" type="line"/>
      <point x="199" y="1062" type="line" smooth="yes"/>
      <point x="200" y="1371"/>
      <point x="338" y="1534"/>
      <point x="597" y="1534" type="curve" smooth="yes"/>
      <point x="834" y="1534"/>
      <point x="986" y="1406"/>
      <point x="986" y="1208" type="curve" smooth="yes"/>
      <point x="986" y="999"/>
      <point x="890" y="916"/>
      <point x="661" y="857" type="curve" smooth="yes"/>
      <point x="622" y="847" type="line"/>
      <point x="660" y="837" type="line" smooth="yes"/>
      <point x="896" y="775"/>
      <point x="1150" y="629"/>
      <point x="1150" y="329" type="curve" smooth="yes"/>
      <point x="1150" y="112"/>
      <point x="991" y="-28"/>
    </contour>
  </outline>
</glyph>
<glyph name="kgreenlandic" format="1">
  <advance width="1082"/>
  <unicode hex="0138"/>
  <outline>
    <contour>
      <point x="203" y="0" type="line"/>
      <point x="203" y="1026" type="line"/>
      <point x="306" y="1026" type="line"/>
      <point x="306" y="525" type="line"/>
      <point x="856" y="1026" type="line"/>
      <point x="996" y="1026" type="line"/>
      <point x="432" y="514" type="line"/>
      <point x="1037" y="0" type="line"/>
      <point x="901" y="0" type="line"/>
      <point x="306" y="513" type="line"/>
      <point x="306" y="0" type="line"/>
    </contour>
  </outline>
</glyph>
<glyph name="lslash" format="1">
  <advance width="503"/>
  <unicode hex="0142"/>
  <outline>
    <contour>
      <point x="206" y="0" type="line"/>
      <point x="206" y="663" type="line"/>
      <point x="-5" y="563" type="line"/>
      <point x="-5" y="642" type="line"/>
      <point x="207" y="742" type="line"/>
      <point x="207" y="1516" type="line"/>
      <point x="308" y="1516" type="line"/>
      <point x="308" y="781" type="line"/>
      <point x="531" y="885" type="line"/>
      <point x="531" y="810" type="line"/>
      <point x="307" y="706" type="line"/>
      <point x="307" y="0" type="line"/>
    </contour>
  </outline>
</glyph>
<glyph name="eng" format="1">
  <advance width="1295"/>
  <unicode hex="014B"/>
  <outline>
    <contour>
      <point x="698" y="-390" type="curve"/>
      <point x="698" y="-306" type="line"/>
      <point x="1008" y="-306"/>
      <point x="1000" y="-111"/>
      <point x="1000" y="164" type="curve" smooth="yes"/>
      <point x="1000" y="481" type="line" smooth="yes"/>
      <point x="1000" y="750"/>
      <point x="977" y="963"/>
      <point x="695" y="963" type="curve" smooth="yes"/>
      <point x="415" y="963"/>
      <point x="305" y="724"/>
      <point x="304" y="678" type="curve" smooth="yes"/>
      <point x="304" y="0" type="line"/>
      <point x="202" y="0" type="line"/>
      <point x="202" y="880" type="line" smooth="yes"/>
      <point x="202" y="918"/>
      <point x="206" y="1026"/>
      <point x="206" y="1026" type="curve"/>
      <point x="300" y="1026" type="line"/>
      <point x="308" y="888" type="line"/>
      <point x="405" y="997"/>
      <point x="517" y="1050"/>
      <point x="709" y="1050" type="curve" smooth="yes"/>
      <point x="1063" y="1050"/>
      <point x="1103" y="775"/>
      <point x="1103" y="525" type="curve" smooth="yes"/>
      <point x="1103" y="156" type="line" smooth="yes"/>
      <point x="1103" y="-169"/>
      <point x="1085" y="-390"/>
    </contour>
  </outline>
</glyph>
<glyph name="oe" format="1">
  <advance width="1946"/>
  <unicode hex="0153"/>
  <outline>
    <contour>
      <point x="1069" y="578" type="curve"/>
      <point x="1788" y="578" type="line"/>
      <point x="1788" y="601"/>
      <point x="1787" y="625"/>
      <point x="1786" y="640" type="curve" smooth="yes"/>
      <point x="1766" y="841"/>
      <point x="1634" y="970"/>
      <point x="1440" y="970" type="curve" smooth="yes"/>
      <point x="1221" y="970"/>
      <point x="1065" y="817"/>
    </contour>
    <contour>
      <point x="598" y="61" type="curve" smooth="yes"/>
      <point x="829" y="61"/>
      <point x="978" y="237"/>
      <point x="978" y="511" type="curve" smooth="yes"/>
      <point x="978" y="790"/>
      <point x="831" y="970"/>
      <point x="603" y="970" type="curve" smooth="yes"/>
      <point x="355" y="970"/>
      <point x="195" y="787"/>
      <point x="195" y="503" type="curve" smooth="yes"/>
      <point x="195" y="234"/>
      <point x="353" y="61"/>
    </contour>
    <contour>
      <point x="598" y="-21" type="curve" smooth="yes"/>
      <point x="286" y="-21"/>
      <point x="85" y="186"/>
      <point x="85" y="507" type="curve" smooth="yes"/>
      <point x="85" y="839"/>
      <point x="288" y="1052"/>
      <point x="603" y="1052" type="curve" smooth="yes"/>
      <point x="799" y="1052"/>
      <point x="955" y="944"/>
      <point x="1017" y="764" type="curve"/>
      <point x="1063" y="944"/>
      <point x="1234" y="1052"/>
      <point x="1440" y="1052" type="curve" smooth="yes"/>
      <point x="1702" y="1052"/>
      <point x="1870" y="858"/>
      <point x="1870" y="557" type="curve" smooth="yes"/>
      <point x="1870" y="507" type="line"/>
      <point x="1069" y="507" type="line"/>
      <point x="1069" y="478" type="line" smooth="yes"/>
      <point x="1069" y="225"/>
      <point x="1220" y="62"/>
      <point x="1456" y="62" type="curve" smooth="yes"/>
      <point x="1560" y="62"/>
      <point x="1690" y="107"/>
      <point x="1787" y="177" type="curve"/>
      <point x="1823" y="108" type="line"/>
      <point x="1720" y="29"/>
      <point x="1572" y="-21"/>
      <point x="1447" y="-21" type="curve" smooth="yes"/>
      <point x="1254" y="-21"/>
      <point x="1083" y="87"/>
      <point x="1017" y="254" type="curve"/>
      <point x="956" y="87"/>
      <point x="795" y="-21"/>
    </contour>
  </outline>
</glyph>
<glyph name="dotlessj" format="1">
  <advance width="503"/>
  <unicode hex="0237"/>
  <outline>
    <contour>
      <point x="269" y="1026" type="move" name="top"/>
    </contour>
    <contour>
      <point x="307" y="23" type="line" smooth="yes"/>
      <point x="307" y="-212.392"/>
      <point x="250.878" y="-413.788"/>
      <point x="0.967389" y="-413.788" type="curve" smooth="yes"/>
      <point x="-23.1723" y="-413.788"/>
      <point x="-49.1201" y="-411.909"/>
      <point x="-77" y="-408" type="curve"/>
      <point x="-79" y="-331" type="line"/>
      <point x="-54.0351" y="-334.255"/>
      <point x="-31.0909" y="-335.898"/>
      <point x="-10.0235" y="-335.898" type="curve" smooth="yes"/>
      <point x="162.204" y="-335.898"/>
      <point x="209" y="-226.116"/>
      <point x="209" y="10" type="curve" smooth="yes"/>
      <point x="209" y="1026" type="line"/>
      <point x="307" y="1026" type="line"/>
    </contour>
  </outline>
</glyph>
<glyph name="caron" format="1">
  <advance width="699"/>
  <unicode hex="02C7"/>
  <outline>
    <contour>
      <point x="345" y="1026" type="move" name="_top"/>
    </contour>
    <contour>
      <point x="287" y="1215" type="line"/>
      <point x="77" y="1483" type="line"/>
      <point x="155" y="1483" type="line"/>
      <point x="341" y="1262" type="line"/>
      <point x="535" y="1483" type="line"/>
      <point x="622" y="1483" type="line"/>
      <point x="412" y="1215" type="line"/>
    </contour>
  </outline>
</glyph>
<glyph name="dotaccent" format="1">
  <advance width="524"/>
  <unicode hex="02D9"/>
  <outline>
    <contour>
      <point x="263" y="1026" type="move" name="_top"/>
    </contour>
    <contour>
      <point x="201" y="1238" type="line"/>
      <point x="201" y="1364" type="line"/>
      <point x="323" y="1364" type="line"/>
      <point x="323" y="1238" type="line"/>
    </contour>
  </outline>
</glyph>
<glyph name="ring" format="1">
  <advance width="534"/>
  <unicode hex="02DA"/>
  <outline>
    <contour>
      <point x="267" y="1456" type="move" name="top"/>
    </contour>
    <contour>
      <point x="269" y="1026" type="move" name="_top"/>
    </contour>
    <contour>
      <point x="268" y="1146" type="curve" smooth="yes"/>
      <point x="167" y="1146"/>
      <point x="93" y="1217"/>
      <point x="93" y="1314" type="curve" smooth="yes"/>
      <point x="93" y="1411"/>
      <point x="167" y="1482"/>
      <point x="268" y="1482" type="curve" smooth="yes"/>
      <point x="369" y="1482"/>
      <point x="443" y="1411"/>
      <point x="443" y="1314" type="curve" smooth="yes"/>
      <point x="443" y="1217"/>
      <point x="369" y="1146"/>
    </contour>
    <contour>
      <point x="268" y="1202" type="curve" smooth="yes"/>
      <point x="329" y="1202"/>
      <point x="373" y="1249"/>
      <point x="373" y="1314" type="curve" smooth="yes"/>
      <point x="373" y="1379"/>
      <point x="329" y="1426"/>
      <point x="268" y="1426" type="curve" smooth="yes"/>
      <point x="207" y="1426"/>
      <point x="163" y="1379"/>
      <point x="163" y="1314" type="curve" smooth="yes"/>
      <point x="163" y="1249"/>
      <point x="207" y="1202"/>
    </contour>
  </outline>
</glyph>
<glyph name="uni0311" format="1">
  <advance width="629"/>
  <unicode hex="0311"/>
  <outline>
    <contour>
      <point x="314" y="1026" type="move" name="_top"/>
    </contour>
    <contour>
      <point x="50" y="1225" type="line"/>
      <point x="55" y="1370"/>
      <point x="183" y="1442"/>
      <point x="311" y="1442" type="curve" smooth="yes"/>
      <point x="441" y="1442"/>
      <point x="571" y="1369"/>
      <point x="579" y="1225" type="curve"/>
      <point x="508" y="1225" type="line"/>
      <point x="496" y="1317"/>
      <point x="402" y="1364"/>
      <point x="310" y="1364" type="curve" smooth="yes"/>
      <point x="220" y="1364"/>
      <point x="131" y="1319"/>
      <point x="123" y="1225" type="curve"/>
    </contour>
  </outline>
</glyph>
<glyph name="uni0312" format="1">
  <advance width="600"/>
  <unicode hex="0312"/>
  <outline>
    <contour>
      <point x="277" y="1026" type="move" name="_top"/>
    </contour>
    <contour>
      <point x="443" y="1683" type="line"/>
      <point x="340" y="1250" type="line"/>
      <point x="223" y="1250" type="line"/>
      <point x="373" y="1683" type="line"/>
    </contour>
  </outline>
</glyph>
<glyph name="Delta" format="1">
  <advance width="1298"/>
  <unicode hex="0394"/>
  <outline>
    <contour>
      <point x="138" y="77" type="line"/>
      <point x="1155" y="77" type="line"/>
      <point x="646" y="1295" type="line"/>
    </contour>
    <contour>
      <point x="41" y="0" type="line"/>
      <point x="41" y="48" type="line"/>
      <point x="634" y="1451" type="line"/>
      <point x="665" y="1451" type="line"/>
      <point x="1257" y="48" type="line"/>
      <point x="1257" y="0" type="line"/>
    </contour>
  </outline>
</glyph>
<glyph name="uni03BC" format="1">
  <advance width="1176"/>
  <unicode hex="03BC"/>
  <outline>
    <contour>
      <point x="168" y="-329" type="line"/>
      <point x="288" y="-329" type="line"/>
      <point x="288" y="62.481" type="line"/>
      <point x="350.833" y="6.89151"/>
      <point x="437.407" y="-20"/>
      <point x="546" y="-20" type="curve" smooth="yes"/>
      <point x="713" y="-20"/>
      <point x="814" y="34"/>
      <point x="887" y="142" type="curve"/>
      <point x="898" y="0" type="line"/>
      <point x="1001" y="0" type="line"/>
      <point x="1001" y="1082" type="line"/>
      <point x="880" y="1082" type="line"/>
      <point x="880" y="240" type="line"/>
      <point x="829" y="162"/>
      <point x="738" y="71"/>
      <point x="552" y="71" type="curve" smooth="yes"/>
      <point x="363" y="71"/>
      <point x="288" y="192"/>
      <point x="288" y="383" type="curve" smooth="yes"/>
      <point x="288" y="1082" type="line"/>
      <point x="167" y="1082" type="line"/>
    </contour>
  </outline>
</glyph>
<glyph name="pi" format="1">
  <advance width="1348"/>
  <unicode hex="03C0"/>
  <outline>
    <contour>
      <point x="1080" y="-9" type="curve" smooth="yes"/>
      <point x="1142" y="-9"/>
      <point x="1201" y="12"/>
      <point x="1242" y="44" type="curve"/>
      <point x="1242" y="127" type="line"/>
      <point x="1214" y="116"/>
      <point x="1166" y="99"/>
      <point x="1125" y="99" type="curve" smooth="yes"/>
      <point x="1025" y="99"/>
      <point x="981" y="189"/>
      <point x="981" y="391" type="curve" smooth="yes"/>
      <point x="981" y="525"/>
      <point x="1001" y="728"/>
      <point x="1037" y="972" type="curve"/>
      <point x="1277" y="972" type="line"/>
      <point x="1277" y="1082" type="line"/>
      <point x="416" y="1082" type="line" smooth="yes"/>
      <point x="189" y="1082"/>
      <point x="127" y="1002"/>
      <point x="127" y="782" type="curve"/>
      <point x="198" y="782" type="line"/>
      <point x="210" y="914"/>
      <point x="251" y="972"/>
      <point x="345" y="972" type="curve" smooth="yes"/>
      <point x="470" y="972" type="line"/>
      <point x="385" y="364" type="line" smooth="yes"/>
      <point x="354" y="144"/>
      <point x="218" y="83"/>
      <point x="113" y="83" type="curve"/>
      <point x="113" y="4" type="line"/>
      <point x="416" y="4"/>
      <point x="468" y="112"/>
      <point x="489" y="334" type="curve" smooth="yes"/>
      <point x="551" y="972" type="line"/>
      <point x="949" y="972" type="line"/>
      <point x="908" y="684"/>
      <point x="872" y="441"/>
      <point x="872" y="281" type="curve" smooth="yes"/>
      <point x="872" y="86"/>
      <point x="925" y="-9"/>
    </contour>
  </outline>
</glyph>
<glyph name="quoteright" format="1">
  <advance width="395"/>
  <unicode hex="2019"/>
  <outline>
    <contour>
      <point x="143" y="904" type="line"/>
      <point x="171" y="1456" type="line"/>
      <point x="290" y="1456" type="line"/>
      <point x="210" y="904" type="line"/>
    </contour>
  </outline>
</glyph>
<glyph name="quotedblleft" format="1">
  <advance width="1024"/>
  <unicode hex="201C"/>
  <outline>
    <contour>
      <point x="551" y="904" type="line"/>
      <point x="631" y="1456" type="line"/>
      <point x="698" y="1456" type="line"/>
      <point x="670" y="904" type="line"/>
    </contour>
    <contour>
      <point x="212" y="904" type="line"/>
      <point x="292" y="1456" type="line"/>
      <point x="359" y="1456" type="line"/>
      <point x="331" y="904" type="line"/>
    </contour>
  </outline>
</glyph>
<glyph name="dagger" format="1">
  <advance width="1022"/>
  <unicode hex="2020"/>
  <outline>
    <contour>
      <point x="453" y="0" type="line"/>
      <point x="453" y="989" type="line"/>
      <point x="118" y="989" type="line"/>
      <point x="118" y="1068" type="line"/>
      <point x="453" y="1068" type="line"/>
      <point x="453" y="1473" type="line"/>
      <point x="561" y="1473" type="line"/>
      <point x="561" y="1068" type="line"/>
      <point x="896" y="1068" type="line"/>
      <point x="896" y="989" type="line"/>
      <point x="561" y="989" type="line"/>
      <point x="561" y="0" type="line"/>
    </contour>
  </outline>
</glyph>
<glyph name="daggerdbl" format="1">
  <advance width="971"/>
  <unicode hex="2021"/>
  <outline>
    <contour>
      <point x="89" y="1068" type="line"/>
      <point x="424" y="1068" type="line"/>
      <point x="424" y="1473" type="line"/>
      <point x="532" y="1473" type="line"/>
      <point x="532" y="1068" type="line"/>
      <point x="867" y="1068" type="line"/>
      <point x="867" y="989" type="line"/>
      <point x="532" y="989" type="line"/>
      <point x="532" y="484" type="line"/>
      <point x="867" y="484" type="line"/>
      <point x="867" y="405" type="line"/>
      <point x="532" y="405" type="line"/>
      <point x="532" y="0" type="line"/>
      <point x="424" y="0" type="line"/>
      <point x="424" y="405" type="line"/>
      <point x="89" y="405" type="line"/>
      <point x="89" y="484" type="line"/>
      <point x="424" y="484" type="line"/>
      <point x="424" y="989" type="line"/>
      <point x="89" y="989" type="line"/>
    </contour>
  </outline>
</glyph>
<glyph name="bullet" format="1">
  <advance width="991"/>
  <unicode hex="2022"/>
  <outline>
    <contour>
      <point x="493" y="404" type="curve" smooth="yes"/>
      <point x="320" y="404"/>
      <point x="186" y="538"/>
      <point x="186" y="702" type="curve" smooth="yes"/>
      <point x="186" y="871"/>
      <point x="317" y="1010"/>
      <point x="493" y="1010" type="curve" smooth="yes"/>
      <point x="665" y="1010"/>
      <point x="805" y="867"/>
      <point x="805" y="702" type="curve" smooth="yes"/>
      <point x="805" y="533"/>
      <point x="671" y="404"/>
    </contour>
  </outline>
</glyph>
<glyph name="perthousand" format="1">
  <advance width="2988"/>
  <unicode hex="2030"/>
  <outline>
    <component base="percent"/>
    <contour>
      <point x="2496" y="0" type="curve" smooth="yes"/>
      <point x="2278" y="0"/>
      <point x="2163" y="157"/>
      <point x="2163" y="453" type="curve" smooth="yes"/>
      <point x="2163" y="757"/>
      <point x="2278" y="918"/>
      <point x="2496" y="918" type="curve" smooth="yes"/>
      <point x="2705" y="918"/>
      <point x="2816" y="757"/>
      <point x="2816" y="453" type="curve" smooth="yes"/>
      <point x="2816" y="157"/>
      <point x="2705" y="0"/>
    </contour>
    <contour>
      <point x="2496" y="76" type="curve" smooth="yes"/>
      <point x="2645" y="76"/>
      <point x="2724" y="207"/>
      <point x="2724" y="454" type="curve" smooth="yes"/>
      <point x="2724" y="708"/>
      <point x="2645" y="842"/>
      <point x="2496" y="842" type="curve" smooth="yes"/>
      <point x="2338" y="842"/>
      <point x="2255" y="708"/>
      <point x="2255" y="454" type="curve" smooth="yes"/>
      <point x="2255" y="207"/>
      <point x="2338" y="76"/>
    </contour>
  </outline>
</glyph>
<glyph name="guilsinglright" format="1">
  <advance width="634"/>
  <unicode hex="203A"/>
  <outline>
    <contour>
      <point x="115" y="181" type="line"/>
      <point x="376" y="547" type="line"/>
      <point x="123" y="909" type="line"/>
      <point x="233" y="909" type="line"/>
      <point x="496" y="548" type="line"/>
      <point x="229" y="181" type="line"/>
    </contour>
  </outline>
</glyph>
<glyph name="foursuperior" format="1">
  <advance width="897"/>
  <unicode hex="2074"/>
  <outline>
    <contour>
      <point x="223" y="926" type="line"/>
      <point x="530" y="926" type="line"/>
      <point x="530" y="1367" type="line"/>
    </contour>
    <contour>
      <point x="532" y="670" type="line"/>
      <point x="532" y="854" type="line"/>
      <point x="137" y="854" type="line"/>
      <point x="137" y="923" type="line"/>
      <point x="511" y="1456" type="line"/>
      <point x="610" y="1456" type="line"/>
      <point x="610" y="926" type="line"/>
      <point x="693" y="926" type="line"/>
      <point x="692" y="854" type="line"/>
      <point x="606" y="854" type="line"/>
      <point x="606" y="670" type="line"/>
    </contour>
  </outline>
</glyph>
<glyph name="Euro" format="1">
  <advance width="1334"/>
  <unicode hex="20AC"/>
  <outline>
    <contour>
      <point x="810" y="-22" type="curve" smooth="yes"/>
      <point x="975" y="-22"/>
      <point x="1135" y="25"/>
      <point x="1273" y="115" type="curve"/>
      <point x="1238" y="190" type="line"/>
      <point x="1114" y="108"/>
      <point x="966" y="65"/>
      <point x="810" y="65" type="curve" smooth="yes"/>
      <point x="502.95" y="65"/>
      <point x="289.535" y="247.15"/>
      <point x="234.2" y="542" type="curve"/>
      <point x="813" y="542" type="line"/>
      <point x="820" y="614" type="line"/>
      <point x="224.072" y="614" type="line"/>
      <point x="221.373" y="642.146"/>
      <point x="220" y="671.163"/>
      <point x="220" y="701" type="curve" smooth="yes"/>
      <point x="220" y="748.637"/>
      <point x="223.007" y="794.362"/>
      <point x="228.872" y="838" type="curve"/>
      <point x="849" y="838" type="line"/>
      <point x="856" y="916" type="line"/>
      <point x="242.877" y="916" type="line"/>
      <point x="310.386" y="1213.09"/>
      <point x="523.053" y="1395"/>
      <point x="824" y="1395" type="curve" smooth="yes"/>
      <point x="968" y="1395"/>
      <point x="1098" y="1353"/>
      <point x="1199" y="1274" type="curve"/>
      <point x="1243" y="1342" type="line"/>
      <point x="1136" y="1433"/>
      <point x="991" y="1481"/>
      <point x="824" y="1481" type="curve" smooth="yes"/>
      <point x="458.812" y="1481"/>
      <point x="203.57" y="1266.04"/>
      <point x="131.049" y="916" type="curve"/>
      <point x="-58" y="916" type="line"/>
      <point x="-63" y="838" type="line"/>
      <point x="118.214" y="838" type="line"/>
      <point x="112.779" y="794.116"/>
      <point x="110" y="748.405"/>
      <point x="110" y="701" type="curve" smooth="yes"/>
      <point x="110" y="671.27"/>
      <point x="111.251" y="642.257"/>
      <point x="113.715" y="614" type="curve"/>
      <point x="-57" y="614" type="line"/>
      <point x="-62" y="542" type="line"/>
      <point x="122.875" y="542" type="line"/>
      <point x="181.662" y="194.007"/>
      <point x="437.822" y="-22"/>
    </contour>
  </outline>
</glyph>
<glyph name="trademark" format="1">
  <advance width="1869"/>
  <unicode hex="2122"/>
  <outline>
    <contour>
      <point x="347" y="731" type="line"/>
      <point x="347" y="1430" type="line"/>
      <point x="67" y="1430" type="line"/>
      <point x="67" y="1482" type="line"/>
      <point x="709" y="1482" type="line"/>
      <point x="709" y="1430" type="line"/>
      <point x="418" y="1430" type="line"/>
      <point x="418" y="731" type="line"/>
    </contour>
    <contour>
      <point x="825" y="731" type="line"/>
      <point x="825" y="1482" type="line"/>
      <point x="933" y="1482" type="line"/>
      <point x="1233" y="825" type="line"/>
      <point x="1563" y="1482" type="line"/>
      <point x="1651" y="1482" type="line"/>
      <point x="1651" y="731" type="line"/>
      <point x="1591" y="731" type="line"/>
      <point x="1591" y="1419" type="line"/>
      <point x="1252" y="731" type="line"/>
      <point x="1209" y="731" type="line"/>
      <point x="887" y="1425" type="line"/>
      <point x="887" y="731" type="line"/>
    </contour>
  </outline>
</glyph>
<glyph name="estimated" format="1">
  <advance width="1184"/>
  <unicode hex="212E"/>
  <outline>
    <contour>
      <point x="276" y="713" type="curve"/>
      <point x="918" y="713" type="line"/>
      <point x="918" y="1037"/>
      <point x="789" y="1141"/>
      <point x="609" y="1141" type="curve" smooth="yes"/>
      <point x="449" y="1141"/>
      <point x="278" y="1036"/>
    </contour>
    <contour>
      <point x="627" y="114" type="curve" smooth="yes"/>
      <point x="342" y="114"/>
      <point x="146" y="294"/>
      <point x="146" y="652" type="curve" smooth="yes"/>
      <point x="146" y="1050"/>
      <point x="378" y="1199"/>
      <point x="611" y="1199" type="curve" smooth="yes"/>
      <point x="846" y="1199"/>
      <point x="1024" y="1075"/>
      <point x="1024" y="700" type="curve" smooth="yes"/>
      <point x="1024" y="689"/>
      <point x="1023" y="671"/>
      <point x="1019" y="655" type="curve"/>
      <point x="276" y="655" type="line"/>
      <point x="274" y="283"/>
      <point x="452" y="176"/>
      <point x="652" y="176" type="curve" smooth="yes"/>
      <point x="754" y="176"/>
      <point x="904" y="218"/>
      <point x="1029" y="299" type="curve"/>
      <point x="1056" y="247" type="line"/>
      <point x="920" y="158"/>
      <point x="769" y="114"/>
    </contour>
  </outline>
</glyph>
<glyph name="increment" format="1">
  <advance width="1319"/>
  <unicode hex="2206"/>
  <outline>
    <contour>
      <point x="138" y="77" type="line"/>
      <point x="1155" y="77" type="line"/>
      <point x="646" y="1295" type="line"/>
    </contour>
    <contour>
      <point x="41" y="0" type="line"/>
      <point x="41" y="48" type="line"/>
      <point x="634" y="1451" type="line"/>
      <point x="665" y="1451" type="line"/>
      <point x="1257" y="48" type="line"/>
      <point x="1257" y="0" type="line"/>
    </contour>
  </outline>
</glyph>
<glyph name="radical" format="1">
  <advance width="1314"/>
  <unicode hex="221A"/>
  <outline>
    <contour>
      <point x="655" y="-160" type="line"/>
      <point x="303" y="729" type="line"/>
      <point x="122" y="702" type="line"/>
      <point x="120" y="767" type="line"/>
      <point x="359" y="812" type="line"/>
      <point x="697" y="-116" type="line"/>
      <point x="1158" y="1626" type="line"/>
      <point x="1214" y="1626" type="line"/>
      <point x="737" y="-160" type="line"/>
    </contour>
  </outline>
</glyph>
<glyph name="lessequal" format="1">
  <advance width="1349"/>
  <unicode hex="2264"/>
  <outline>
    <contour>
      <point x="257" y="0" type="line"/>
      <point x="257" y="77" type="line"/>
      <point x="1106" y="77" type="line"/>
      <point x="1106" y="0" type="line"/>
    </contour>
    <contour>
      <point x="1081" y="153" type="line"/>
      <point x="303" y="610" type="line"/>
      <point x="303" y="681" type="line"/>
      <point x="1087" y="1063" type="line"/>
      <point x="1087" y="961" type="line"/>
      <point x="407" y="636" type="line"/>
      <point x="1081" y="254" type="line"/>
    </contour>
  </outline>
</glyph>
<glyph name="fi" format="1">
  <advance width="1174"/>
  <unicode hex="FB01"/>
  <outline>
    <contour>
      <point x="242" y="0" type="line"/>
      <point x="354" y="0" type="line"/>
      <point x="354" y="954" type="line"/>
      <point x="853" y="954" type="line"/>
      <point x="853" y="0" type="line"/>
      <point x="951" y="0" type="line"/>
      <point x="951" y="1026" type="line"/>
      <point x="354" y="1026" type="line"/>
      <point x="354" y="1198" type="line" smooth="yes"/>
      <point x="354" y="1336"/>
      <point x="371" y="1407"/>
      <point x="638" y="1407" type="curve"/>
      <point x="632" y="1497" type="line"/>
      <point x="590" y="1497" type="line" smooth="yes"/>
      <point x="296" y="1497"/>
      <point x="242" y="1391"/>
      <point x="242" y="1164" type="curve" smooth="yes"/>
      <point x="242" y="1026" type="line"/>
      <point x="67" y="1026" type="line"/>
      <point x="67" y="954" type="line"/>
      <point x="242" y="954" type="line"/>
    </contour>
    <contour>
      <point x="853" y="1346" type="line"/>
      <point x="853" y="1456" type="line"/>
      <point x="951" y="1456" type="line"/>
      <point x="951" y="1346" type="line"/>
    </contour>
  </outline>
</glyph>
<glyph name="fl" format="1">
  <advance width="1229"/>
  <unicode hex="FB02"/>
  <outline>
    <contour>
      <point x="276" y="0" type="line"/>
      <point x="276" y="961" type="line"/>
      <point x="67" y="961" type="line"/>
      <point x="67" y="1026" type="line"/>
      <point x="276" y="1026" type="line"/>
      <point x="276" y="1155" type="line" smooth="yes"/>
      <point x="276" y="1388"/>
      <point x="376" y="1468"/>
      <point x="785" y="1468" type="curve" smooth="yes"/>
      <point x="1027" y="1468" type="line"/>
      <point x="1027" y="0" type="line"/>
      <point x="914" y="0" type="line"/>
      <point x="914" y="1380" type="line"/>
      <point x="753" y="1380" type="line" smooth="yes"/>
      <point x="434" y="1380"/>
      <point x="388" y="1332"/>
      <point x="388" y="1161" type="curve" smooth="yes"/>
      <point x="388" y="1026" type="line"/>
      <point x="648" y="1026" type="line"/>
      <point x="648" y="961" type="line"/>
      <point x="388" y="961" type="line"/>
      <point x="388" y="0" type="line"/>
    </contour>
  </outline>
</glyph>
